<mxfile host="app.diagrams.net" modified="2024-02-02T18:25:00.371Z" agent="Mozilla/5.0 (Macintosh; Intel Mac OS X 10_15_7) AppleWebKit/605.1.15 (KHTML, like Gecko) Version/15.2 Safari/605.1.15" etag="bspKQsgDUdfL0L83Mnp4" version="23.1.1" type="github">
  <diagram name="Page-1" id="ta8ZUdkbNk-4oZ5ELYF4">
    <mxGraphModel dx="1306" dy="757" grid="1" gridSize="10" guides="1" tooltips="1" connect="1" arrows="1" fold="1" page="1" pageScale="1" pageWidth="827" pageHeight="1169" math="0" shadow="0">
      <root>
        <mxCell id="0" />
        <mxCell id="1" parent="0" />
        <mxCell id="KItUTcLpa3-gRlQewvxe-1" value="&lt;b&gt;&lt;font style=&quot;font-size: 18px;&quot;&gt;Agent&lt;/font&gt;&lt;/b&gt;" style="rounded=0;whiteSpace=wrap;html=1;" vertex="1" parent="1">
          <mxGeometry x="320" y="200" width="120" height="60" as="geometry" />
        </mxCell>
        <mxCell id="KItUTcLpa3-gRlQewvxe-2" value="&lt;font style=&quot;font-size: 18px;&quot;&gt;&lt;b&gt;Environment&lt;/b&gt;&lt;/font&gt;" style="rounded=0;whiteSpace=wrap;html=1;" vertex="1" parent="1">
          <mxGeometry x="320" y="470" width="120" height="60" as="geometry" />
        </mxCell>
        <mxCell id="KItUTcLpa3-gRlQewvxe-3" value="" style="endArrow=classic;html=1;rounded=0;edgeStyle=orthogonalEdgeStyle;exitX=0;exitY=0.5;exitDx=0;exitDy=0;entryX=0;entryY=0.5;entryDx=0;entryDy=0;" edge="1" parent="1" source="KItUTcLpa3-gRlQewvxe-2" target="KItUTcLpa3-gRlQewvxe-1">
          <mxGeometry width="50" height="50" relative="1" as="geometry">
            <mxPoint x="160" y="450" as="sourcePoint" />
            <mxPoint x="240" y="320" as="targetPoint" />
            <Array as="points">
              <mxPoint x="141" y="500" />
              <mxPoint x="141" y="230" />
            </Array>
          </mxGeometry>
        </mxCell>
        <mxCell id="KItUTcLpa3-gRlQewvxe-4" value="" style="endArrow=classic;html=1;rounded=0;edgeStyle=orthogonalEdgeStyle;entryX=1;entryY=0.5;entryDx=0;entryDy=0;exitX=1;exitY=0.5;exitDx=0;exitDy=0;" edge="1" parent="1" source="KItUTcLpa3-gRlQewvxe-1" target="KItUTcLpa3-gRlQewvxe-2">
          <mxGeometry width="50" height="50" relative="1" as="geometry">
            <mxPoint x="450" y="230" as="sourcePoint" />
            <mxPoint x="710" y="530" as="targetPoint" />
            <Array as="points">
              <mxPoint x="710" y="230" />
              <mxPoint x="710" y="500" />
            </Array>
          </mxGeometry>
        </mxCell>
        <mxCell id="KItUTcLpa3-gRlQewvxe-5" value="" style="endArrow=classic;html=1;rounded=0;exitX=0.5;exitY=0;exitDx=0;exitDy=0;" edge="1" parent="1" source="KItUTcLpa3-gRlQewvxe-2">
          <mxGeometry width="50" height="50" relative="1" as="geometry">
            <mxPoint x="360" y="420" as="sourcePoint" />
            <mxPoint x="380" y="270" as="targetPoint" />
          </mxGeometry>
        </mxCell>
        <mxCell id="KItUTcLpa3-gRlQewvxe-6" value="&lt;font style=&quot;font-size: 18px;&quot;&gt;&lt;b&gt;s&lt;/b&gt;&lt;/font&gt;" style="text;html=1;align=center;verticalAlign=middle;resizable=0;points=[];autosize=1;strokeColor=none;fillColor=none;" vertex="1" parent="1">
          <mxGeometry x="145" y="388" width="30" height="30" as="geometry" />
        </mxCell>
        <mxCell id="KItUTcLpa3-gRlQewvxe-7" value="&lt;font style=&quot;font-size: 18px;&quot;&gt;&lt;b&gt;a&lt;/b&gt;&lt;/font&gt;" style="text;html=1;align=center;verticalAlign=middle;resizable=0;points=[];autosize=1;strokeColor=none;fillColor=none;" vertex="1" parent="1">
          <mxGeometry x="685" y="398" width="30" height="30" as="geometry" />
        </mxCell>
        <mxCell id="KItUTcLpa3-gRlQewvxe-8" value="&lt;font style=&quot;font-size: 18px;&quot;&gt;&lt;b&gt;r&lt;/b&gt;&lt;/font&gt;" style="text;html=1;align=center;verticalAlign=middle;resizable=0;points=[];autosize=1;strokeColor=none;fillColor=none;" vertex="1" parent="1">
          <mxGeometry x="375" y="388" width="30" height="30" as="geometry" />
        </mxCell>
      </root>
    </mxGraphModel>
  </diagram>
</mxfile>
